<?xml version="1.0" encoding="UTF-8"?>
<!-- Created with Inkscape (http://www.inkscape.org/) -->
<svg width="150.87" height="150.87" version="1.1" viewBox="0 0 150.87 150.87" xmlns="http://www.w3.org/2000/svg">
  <path d="m140.27 75.433a64.835 64.835 0 0 1-64.835 64.835 64.835 64.835 0 0 1-64.835-64.835 64.835 64.835 0 0 1 64.835-64.835 64.835 64.835 0 0 1 64.835 64.835zm-101.57 46.364q0.26766-12.176 0.66906-24.085 0.4014-12.043 0.8028-23.684 0.53523-11.775 1.2043-23.015 0.66906-11.24 1.6057-21.944h5.0847q3.6128 8.5637 7.2256 17.395 3.7466 8.8313 7.2256 18.198 3.479 9.2327 6.6904 19.001 3.3452 9.6341 6.2889 19.937 3.0776-10.303 6.2889-19.937 3.2114-9.7679 6.6903-19.001 3.479-9.3665 7.0918-18.198 3.6128-8.8313 7.2256-17.395h5.0847q0.93666 10.705 1.6057 21.944 0.66906 11.24 1.0704 23.015 0.53522 11.641 0.93667 23.684 0.4014 11.909 0.66907 24.085h-4.5495q-0.26758-14.719-0.8028-29.571-0.4014-14.986-1.0705-29.438-0.53524-14.451-1.3381-27.832-3.0775 7.2256-6.0213 14.585-2.8099 7.2256-5.6199 14.451-2.6761 7.2256-5.2185 14.585-2.5423 7.3594-4.9509 14.719-2.2747 7.2256-4.4156 14.719h-5.3524q-2.1409-7.3594-4.5494-14.719-2.4085-7.3594-4.9509-14.585-2.5423-7.2256-5.3523-14.451-2.6761-7.2256-5.6199-14.451-2.8099-7.3594-5.8875-14.585-0.8029 13.381-1.4719 27.832-0.66906 14.451-1.0705 29.304-0.4014 14.719-0.66902 29.438z" fill="#cfd48f" fill-opacity=".83922" stroke="#00385c" stroke-linecap="round" stroke-linejoin="round" stroke-opacity=".46667" stroke-width="21.196" style="mix-blend-mode:normal;paint-order:normal"/>
  <path d="m140.27 75.433a64.835 64.835 0 0 1-64.835 64.835 64.835 64.835 0 0 1-64.835-64.835 64.835 64.835 0 0 1 64.835-64.835 64.835 64.835 0 0 1 64.835 64.835zm-101.57 46.364q0.26766-12.176 0.66906-24.085 0.4014-12.043 0.8028-23.684 0.53523-11.775 1.2043-23.015 0.66906-11.24 1.6057-21.944h5.0847q3.6128 8.5637 7.2256 17.395 3.7466 8.8313 7.2256 18.198 3.479 9.2327 6.6904 19.001 3.3452 9.6341 6.2889 19.937 3.0776-10.303 6.2889-19.937 3.2114-9.7679 6.6903-19.001 3.479-9.3665 7.0918-18.198 3.6128-8.8313 7.2256-17.395h5.0847q0.93666 10.705 1.6057 21.944 0.66906 11.24 1.0704 23.015 0.53522 11.641 0.93667 23.684 0.4014 11.909 0.66907 24.085h-4.5495q-0.26758-14.719-0.8028-29.571-0.4014-14.986-1.0705-29.438-0.53524-14.451-1.3381-27.832-3.0775 7.2256-6.0213 14.585-2.8099 7.2256-5.6199 14.451-2.6761 7.2256-5.2185 14.585-2.5423 7.3594-4.9509 14.719-2.2747 7.2256-4.4156 14.719h-5.3524q-2.1409-7.3594-4.5494-14.719-2.4085-7.3594-4.9509-14.585-2.5423-7.2256-5.3523-14.451-2.6761-7.2256-5.6199-14.451-2.8099-7.3594-5.8875-14.585-0.8029 13.381-1.4719 27.832-0.66906 14.451-1.0705 29.304-0.4014 14.719-0.66902 29.438z" fill="#cfd48f" fill-opacity=".83922" stroke="#00385c" stroke-linecap="round" stroke-linejoin="round" stroke-opacity=".46667" stroke-width="21.196" style="mix-blend-mode:color-burn;paint-order:normal"/>
</svg>
